PathFileType	4	(X/Y/Z)	Run_400 02
DataRate	CameraRate	NumFrames	NumMarkers	Units	OrigDataRate	OrigDataStartFrame	OrigNumFrames
100	100	7	45	mm	100	136	137
Frame#	Time	LASI			RASI			LPSI			RPSI			RTH1			RTH2			RTH3			LTH1			LTH2			LTH3			RTB1			RTB2			RTB3			RLMAL			RMMAL			LTB1			LTB2			LTB3			RCAL			RTOE			RMT5			LCAL			LTOE			LMT5			LACR			RACR			CLAV			C7			LPSH			RUA1			RUA2			RUA3			RLEL			RMEL			LUA1			LUA2			LUA3			LLEL			LMEL			RFAsuperior			RFAradius			RFAulna			LFAsuperior			LFAradius			LFAulna		
		X1	Y1	Z1	X2	Y2	Z2	X3	Y3	Z3	X4	Y4	Z4	X5	Y5	Z5	X6	Y6	Z6	X7	Y7	Z7	X8	Y8	Z8	X9	Y9	Z9	X10	Y10	Z10	X11	Y11	Z11	X12	Y12	Z12	X13	Y13	Z13	X14	Y14	Z14	X15	Y15	Z15	X16	Y16	Z16	X17	Y17	Z17	X18	Y18	Z18	X19	Y19	Z19	X20	Y20	Z20	X21	Y21	Z21	X22	Y22	Z22	X23	Y23	Z23	X24	Y24	Z24	X25	Y25	Z25	X26	Y26	Z26	X27	Y27	Z27	X28	Y28	Z28	X29	Y29	Z29	X30	Y30	Z30	X31	Y31	Z31	X32	Y32	Z32	X33	Y33	Z33	X34	Y34	Z34	X35	Y35	Z35	X36	Y36	Z36	X37	Y37	Z37	X38	Y38	Z38	X39	Y39	Z39	X40	Y40	Z40	X41	Y41	Z41	X42	Y42	Z42	X43	Y43	Z43	X44	Y44	Z44	X45	Y45	Z45	

136	  1.360000	957.251168	1079.060003	-438.865816	947.779363	1091.956793	-208.744844	793.826429	1130.070882	-380.145247	788.633570	1126.745614	-290.663035	927.370602	840.010071	-160.678201	1026.182865	803.946752	-173.496850	998.926618	687.623298	-188.790455	793.612340	882.647308	-488.442443	814.816101	755.471850	-465.633731	723.789247	686.024187	-456.469325	1126.172325	471.436643	-236.062732	1093.715618	406.193964	-199.179413	1141.108894	289.874012	-251.077714	1122.321503	166.817378	-243.520924	1143.754920	201.378800	-320.023870	598.498155	485.528592	-416.546955	465.651402	512.068019	-425.927297	421.085097	408.789385	-389.941131	1070.989387	144.080846	-313.503292	1293.320434	147.423370	-282.389048	1226.437361	104.172489	-219.044952	260.896307	437.436233	-333.154862	297.250158	215.405049	-336.334142	247.082876	259.132489	-397.352031	935.739036	1596.017286	-475.190800	874.873265	1568.537860	-168.664951	973.252766	1514.074803	-284.878186	871.466849	1605.383915	-326.284643	860.551957	1553.935689	-506.161629	757.807554	1467.010739	-109.905552	683.356405	1450.666835	-169.003376	641.954725	1409.543869	-129.939341	609.459264	1346.977067	-101.747099	617.163720	1333.319051	-190.799382	885.378709	1465.586596	-562.169723	826.770168	1383.597969	-560.930084	864.113460	1339.916367	-609.789635	882.892407	1260.689820	-624.987278	821.705765	1249.527505	-552.131241	640.924272	1273.025856	-100.446553	834.105197	1221.132239	-104.661078	801.617682	1163.472159	-90.482617	941.180990	1246.816195	-546.765644	1019.003144	1368.487020	-447.091618	1049.564323	1306.919521	-438.231524	
137	  1.370000	957.993571	1077.657919	-439.396074	948.462920	1091.360130	-208.655872	793.424714	1126.598973	-380.463139	788.723690	1123.070376	-291.404047	924.117132	835.520814	-158.187134	1020.977232	795.152629	-174.020100	992.198487	680.773601	-189.187767	796.914393	878.445827	-487.567500	820.792527	751.367187	-466.584078	731.817550	680.031041	-455.512347	1120.998680	465.621119	-237.933274	1091.039390	399.007364	-201.561962	1142.478297	284.949367	-254.639905	1127.217080	161.372952	-248.336374	1148.623038	197.335849	-324.264955	604.666692	484.980096	-416.829745	474.031543	522.659675	-424.799375	421.681947	422.845285	-391.177935	1077.439737	138.009142	-319.749595	1299.223660	146.880970	-285.636859	1232.783085	101.400010	-223.808198	263.909940	462.343292	-332.835111	285.270478	238.522143	-341.488900	238.007149	287.026115	-401.219814	937.535437	1594.326347	-473.068105	877.099750	1565.441001	-167.045170	973.958290	1510.941635	-284.102780	872.336414	1603.252600	-324.354948	861.845369	1553.585713	-504.390801	760.314349	1462.422653	-108.630085	685.882260	1446.148472	-167.633023	645.252801	1403.633792	-129.384538	613.281387	1340.544415	-101.813952	622.011924	1327.971755	-191.841090	885.640583	1465.865982	-561.328104	825.768507	1384.823014	-560.703771	862.462160	1341.092529	-610.225028	879.814332	1261.702309	-626.311920	819.143652	1250.359470	-553.863286	645.149319	1266.710215	-100.406237	838.985646	1216.493235	-102.393237	806.777744	1158.373992	-89.738978	938.357893	1243.935832	-548.980174	1020.505632	1360.789511	-446.448169	1049.355331	1298.184238	-439.706174	
138	  1.380000	958.381824	1074.675871	-440.278942	949.314588	1089.856083	-209.265750	793.395429	1122.021500	-380.770540	789.205755	1119.030863	-292.039760	920.916635	830.633695	-156.442086	1016.758125	787.279277	-174.252160	987.107551	674.361487	-189.402921	799.280341	872.586695	-486.255188	827.055582	745.797590	-467.861270	740.611650	672.430790	-454.773484	1114.935462	459.666498	-239.529273	1085.753299	392.133718	-204.015542	1139.244638	279.387034	-258.015239	1125.152015	155.170205	-253.678162	1147.350479	192.232288	-328.167078	613.144907	483.074909	-417.476168	485.455584	531.088326	-424.290871	426.058661	435.199115	-392.198351	1076.758275	132.777921	-326.244957	1298.007399	142.612952	-288.418821	1231.121102	 95.128430	-228.963513	271.545965	485.322016	-332.043884	277.435451	261.061346	-347.165065	234.480063	314.407485	-405.925404	939.074025	1591.291880	-471.136823	879.289589	1561.058934	-165.491549	974.609064	1506.702803	-283.538384	873.104604	1599.916089	-322.556765	862.867318	1551.862994	-502.630184	763.285223	1456.252702	-106.887638	688.475726	1439.758523	-165.265896	649.167352	1395.709231	-127.494677	617.995173	1332.064262	-100.559496	627.221374	1320.681081	-192.352019	885.459731	1465.150367	-560.709965	824.263053	1385.240815	-560.782204	860.173018	1341.440767	-610.930695	875.826116	1261.912855	-628.021233	815.671207	1250.391370	-555.892511	650.424367	1258.488886	-99.207067	844.926931	1210.227586	-100.077494	813.149514	1151.665177	-88.771714	934.581106	1239.631708	-552.031179	1021.552074	1350.673941	-446.420163	1048.292213	1286.963056	-442.011179	
139	  1.390000	958.333764	1070.179466	-441.358127	950.035641	1086.811138	-210.443123	793.415827	1116.435166	-380.860304	789.487677	1114.550343	-292.104289	918.585189	825.672081	-155.996050	1014.014665	780.950450	-174.797133	983.308182	668.517409	-189.671882	801.345621	865.026094	-484.700709	833.835679	738.941786	-469.326092	750.414516	663.469614	-454.514283	1108.055878	452.820742	-240.933179	1078.070328	384.971989	-206.374671	1131.842766	272.374483	-260.809743	1116.903955	147.262436	-258.535606	1140.183145	185.148061	-331.612796	623.886682	479.962790	-418.452162	499.696849	537.163684	-424.623497	434.070973	445.626222	-392.989624	1069.252720	127.104538	-331.621901	1290.127926	133.535804	-291.555275	1222.222293	 84.584219	-234.121118	283.372746	505.739244	-331.061728	274.510703	282.301156	-352.891329	236.852119	340.131866	-411.005244	940.065893	1586.992908	-469.586858	881.385104	1555.379060	-163.926868	975.245049	1501.473641	-283.132464	873.745936	1595.314059	-320.955114	863.349107	1548.612435	-500.910351	766.726259	1448.373755	-104.692254	691.179034	1431.398828	-161.912268	653.679215	1385.738886	-124.353414	623.517951	1321.569660	-98.027405	632.650406	1310.832394	-190.590566	884.591164	1463.314913	-560.282244	822.172950	1384.657449	-561.106956	857.170753	1340.816526	-611.899786	870.949307	1261.238584	-630.124455	811.259963	1249.566901	-558.173515	656.730174	1248.403045	-96.919492	851.944806	1202.515414	-97.818078	820.739321	1143.488911	-87.526793	929.781392	1233.983244	-555.916242	1021.916728	1338.193900	-447.223124	1046.049854	1273.414230	-445.229567	
140	  1.400000	957.735564	1064.388881	-442.330099	950.254910	1081.894490	-211.249886	793.186642	1109.889049	-380.625536	789.175972	1109.170079	-291.568358	917.481769	820.389797	-157.197884	1012.611369	776.273295	-176.455265	980.390411	663.122121	-190.445589	803.796188	856.082765	-483.397207	841.381958	731.123939	-470.995742	761.407621	653.462902	-454.910619	1100.234572	444.371501	-242.347433	1068.468476	376.959852	-208.366106	1120.400576	263.328554	-262.843189	1102.796105	137.914826	-261.735801	1127.049093	176.045557	-334.363797	636.767628	475.843413	-419.872027	516.438314	541.099992	-425.714265	445.354898	454.158622	-393.850964	1054.829584	120.230111	-335.350800	1275.558788	119.522708	-295.661115	1206.005287	 71.447015	-238.585187	298.758306	523.256624	-330.189712	276.977826	301.563145	-358.652081	244.677930	363.223225	-416.098321	940.358589	1581.573986	-468.487877	883.411538	1548.413511	-162.285874	975.880177	1495.352401	-282.825709	874.230102	1589.517604	-319.569326	863.134293	1543.869129	-499.205484	770.687047	1438.753220	-102.069350	694.133884	1421.071436	-157.593708	658.819277	1373.797978	-120.105760	629.849592	1309.204677	-94.219308	638.322468	1298.448831	-185.886104	882.884474	1460.291259	-559.978697	819.425587	1382.951548	-561.579554	853.390328	1339.143186	-613.161501	865.191262	1259.655095	-632.591445	806.101107	1247.818568	-560.743597	664.089346	1236.554740	-93.616627	860.051689	1193.485762	-95.734997	829.587343	1133.995358	-85.877078	923.947162	1227.126682	-560.593290	1021.563416	1323.549283	-449.216325	1042.714335	1257.946880	-450.055102	
141	  1.410000	956.569460	1057.565094	-442.932820	949.928159	1075.280874	-210.965302	792.663810	1102.381964	-380.108347	788.341277	1102.515988	-290.774452	917.136068	814.252684	-159.545470	1011.968889	772.454740	-179.740562	977.957625	657.487697	-191.903400	807.117656	846.147828	-482.838107	849.858868	722.647247	-472.936430	773.663129	642.666842	-456.043669	1091.195999	433.973197	-244.339009	1057.292458	367.679534	-210.202698	1104.568676	252.126994	-264.912159	1082.315828	128.524792	-263.404686	1107.305717	165.764692	-336.674677	651.659672	470.903294	-421.951757	535.408271	543.245122	-427.363023	459.547238	460.894654	-395.159678	1032.912040	112.385917	-338.301772	1253.897580	102.565977	-300.636038	1181.931513	 59.538346	-241.804508	316.926955	537.855908	-329.722100	284.931265	318.393401	-364.562911	257.208163	383.111192	-421.031448	940.014223	1575.085942	-467.738662	885.468806	1540.203361	-160.573080	976.523265	1488.364863	-282.592457	874.607376	1582.626734	-318.319190	862.273790	1537.766681	-497.450431	775.246191	1427.514557	-99.006206	697.530661	1408.870441	-152.375010	664.657861	1360.056018	-114.915730	637.066375	1295.189842	-89.174096	644.458517	1284.168340	-179.384661	880.310419	1456.091409	-559.698501	815.964734	1380.095189	-562.049389	848.787098	1336.437939	-614.689127	858.549154	1257.170058	-635.345533	800.359083	1245.113720	-563.568337	672.566732	1223.131581	-89.359325	869.274308	1183.254066	-93.983193	839.731174	1123.342284	-83.756670	917.117265	1219.238155	-566.000243	1020.509079	1307.133736	-452.760853	1038.597480	1241.050135	-457.131660	
142	  1.420000	954.982641	1049.839898	-443.003283	949.335743	1067.418113	-210.220899	791.763966	1094.071144	-379.370257	787.215393	1094.746074	-290.022299	916.584150	807.150556	-161.689113	1011.279521	767.993120	-184.449514	975.635039	650.755527	-193.993617	811.418595	835.431694	-483.074242	859.290893	713.725258	-475.192494	787.156804	631.228478	-457.824755	1080.804364	422.173820	-248.014376	1044.700500	357.383918	-213.067768	1084.134535	239.666493	-268.841689	1055.025234	120.724076	-265.673192	1080.490291	155.594400	-340.149762	668.533666	465.285470	-424.777566	556.424420	543.793429	-429.465277	476.433911	465.865349	-397.139949	1003.429681	104.780098	-341.966717	1225.200870	 86.680672	-305.635294	1150.396078	 52.548607	-243.841530	337.262802	549.707642	-329.950984	298.043441	332.524848	-370.585012	273.734747	399.571152	-425.793871	939.221309	1567.496154	-467.169842	887.698587	1530.896787	-158.860498	977.258540	1480.459461	-282.440169	874.981829	1574.624430	-317.053032	860.931883	1530.432171	-495.605914	780.486767	1414.881419	-95.486046	701.569016	1394.941464	-146.403349	671.286079	1344.768588	-108.910999	645.288181	1279.780183	-83.060327	651.319824	1268.673019	-172.542607	876.939733	1450.765445	-559.387002	811.798906	1376.124325	-562.365342	843.338764	1332.768355	-616.350758	851.014047	1253.788145	-638.311963	794.082869	1241.481870	-566.521597	682.240343	1208.415373	-84.269353	879.631407	1171.991792	-92.689808	851.148006	1111.705147	-81.325420	909.320255	1210.499349	-572.034864	1018.654356	1289.425466	-457.929549	1033.848435	1223.099095	-466.189017	
